<svg xmlns="http://www.w3.org/2000/svg" width="29.476" height="25.107" viewBox="0 0 29.476 25.107">
    <g id="home" transform="translate(-1.422 -2.844)">
        <path id="Path_478" data-name="Path 478" d="M24.585,25.266a3.3,3.3,0,0,1-3.246,2.686H10.64a3.3,3.3,0,0,1-3.246-2.686L4.981,12.6,15.9,4.522,27,12.594Z" fill="#eddfac"/>
        <path id="Path_479" data-name="Path 479" d="M13.156,23.111a1.067,1.067,0,0,1,1.067-1.067h4.267a1.067,1.067,0,0,1,0,2.133H14.222A1.067,1.067,0,0,1,13.156,23.111Z" fill="#945151" fill-rule="evenodd" opacity="0.5"/>
        <path id="Path_480" data-name="Path 480" d="M19.479,16.3A3.478,3.478,0,1,1,16,12.821,3.478,3.478,0,0,1,19.479,16.3Z" fill="#945151"/>
        <path id="Path_481" data-name="Path 481" d="M16.169,2.845a2.3,2.3,0,0,1,1.368.441h0l12.409,8.946a2.311,2.311,0,0,1-2.716,3.74h0L16.16,7.992,5.092,15.971h0a2.311,2.311,0,0,1-2.716-3.74h0L14.784,3.286h0A2.3,2.3,0,0,1,16.169,2.845Z" fill="#4b97ff"/>
    </g>
</svg>
