<svg xmlns="http://www.w3.org/2000/svg" width="52.759" height="54.633" viewBox="0 0 52.759 54.633">
    <g id="Sage" transform="translate(-10 -6)">
        <path id="Rectangle-Copy-296" d="M25,28H48a8,8,0,0,1,0,16H25a8,8,0,0,1,0-16Z" fill="#e5e5e5" fill-rule="evenodd"/>
        <path id="Rectangle-2-Copy-13" d="M36.655,18.871A11.593,11.593,0,0,1,48.248,30.464v5.2a11.593,11.593,0,1,1-23.186,0v-5.2A11.593,11.593,0,0,1,36.655,18.871Z" fill="#ffd097" fill-rule="evenodd"/>
        <path id="Rectangle-2-Copy-14" d="M24.626,40.049h24v10l-8.334,8.984a5,5,0,0,1-7.066.265q-.138-.128-.265-.265l-8.334-8.984Z" fill="#e5e5e5" fill-rule="evenodd"/>
        <rect id="Rectangle-2-Copy-15" width="2.898" height="4.365" rx="1.449" transform="translate(30.134 31.774)" fill="#dbaa6f"/>
        <rect id="Rectangle-2-Copy-16" width="2.898" height="4.365" rx="1.449" transform="translate(40.278 31.774)" fill="#dbaa6f"/>
        <path id="Shape" d="M47,39.3a9.5,9.5,0,0,1,3.477,12.977,1.5,1.5,0,0,1-2.049.549l-13.856-8a1.5,1.5,0,0,1-.549-2.049A9.5,9.5,0,0,1,47,39.3Zm-1.5,2.6a6.5,6.5,0,0,0-7.979,1.167L48.479,49.4A6.5,6.5,0,0,0,45.5,41.9Z" fill="#fff"/>
        <path id="Shape-2" data-name="Shape" d="M26,39.3a9.5,9.5,0,0,1,12.977,3.477,1.5,1.5,0,0,1-.549,2.049l-13.856,8a1.5,1.5,0,0,1-2.049-.549A9.5,9.5,0,0,1,26,39.3Zm9.479,3.765A6.5,6.5,0,0,0,24.521,49.4Z" fill="#fff"/>
        <path id="Rectangle-Copy-274" d="M44.25-40.067a8,8,0,0,0,8-8h-16A8,8,0,0,0,44.25-40.067Z" transform="translate(104.605 28.029) rotate(-150)" fill="#fff" fill-rule="evenodd"/>
        <path id="Rectangle-Copy-275" d="M28.75,40.067a8,8,0,0,1,8,8h-16A8,8,0,0,1,28.75,40.067Z" transform="translate(-18.182 20.279) rotate(-30)" fill="#fff" fill-rule="evenodd"/>
        <path id="Rectangle-3-Copy-5" d="M35.961,28.591h1.387a1.48,1.48,0,0,1,1.48,1.48v9.5a1.48,1.48,0,0,1-1.48,1.48H35.961a1.48,1.48,0,0,1-1.48-1.48v-9.5A1.48,1.48,0,0,1,35.961,28.591Z" fill="#f3ad6d" fill-rule="evenodd"/>
        <path id="Rectangle-3-Copy-6" d="M35.309,28.591h3.04a1.48,1.48,0,0,1,1.48,1.48v.04a1.48,1.48,0,0,1-1.48,1.48h-3.04a1.48,1.48,0,0,1-1.48-1.48v-.04A1.48,1.48,0,0,1,35.309,28.591Z" fill="#f3ad6d" fill-rule="evenodd"/>
        <rect id="Rectangle-6-Copy-6" width="7.97" height="3.637" rx="1.819" transform="translate(38.104 29.591)" fill="#fff"/>
        <rect id="Rectangle-6-Copy-7" width="7.97" height="3.637" rx="1.819" transform="translate(27.235 29.591)" fill="#fff"/>
        <path id="Rectangle-Copy-276" d="M32.78,6h6.793a2,2,0,0,1,1.77,1.069L50.78,25h-28Z" fill="#1899d6" fill-rule="evenodd"/>
        <path id="Rectangle-6-Copy-8" d="M12.51,24.723H60.249a2.51,2.51,0,1,1,0,5.02H12.51a2.51,2.51,0,1,1,0-5.02Z" fill="#1cb0f6" fill-rule="evenodd"/>
        <path id="Path" d="M22.989,6H36v9L22.373,8.868A1.5,1.5,0,0,1,22.989,6Z" fill="#1899d6" fill-rule="evenodd"/>
        <path id="Path-Copy-5" d="M40.172,14.185a.5.5,0,0,1-.427.81q-.08-.006-.161-.006a2.148,2.148,0,1,0,0,4.295q.081,0,.161-.006a.5.5,0,0,1,.427.81,4.38,4.38,0,0,1-3.436,1.685,4.548,4.548,0,0,1-4.455-4.636A4.548,4.548,0,0,1,36.736,12.5,4.38,4.38,0,0,1,40.172,14.185ZM36.736,13.5a3.549,3.549,0,0,0-3.455,3.636,3.549,3.549,0,0,0,3.455,3.636,3.323,3.323,0,0,0,1.932-.621,3.137,3.137,0,0,1,0-6.031A3.323,3.323,0,0,0,36.736,13.5Z" fill="#ffd900"/>
        <path id="Path-Copy-5-2" data-name="Path-Copy-5" d="M39.78,14.5q-.1-.007-.2-.007a2.648,2.648,0,1,0,0,5.295q.1,0,.2-.007a3.882,3.882,0,0,1-3.045,1.5,4.049,4.049,0,0,1-3.955-4.136A4.049,4.049,0,0,1,36.736,13a3.882,3.882,0,0,1,3.045,1.5Z" fill="#ffd900" fill-rule="evenodd"/>
    </g>
</svg>
