<svg xmlns="http://www.w3.org/2000/svg" width="42" height="36" viewBox="0 0 42 36">
    <g id="Group_1" data-name="Group 1" transform="translate(-2.183 -5.002)">
        <path id="Path_471" data-name="Path 471" d="M23.183,5a16,16,0,0,0-16,16v.935a9,9,0,0,0,4,17.064h24a9,9,0,0,0,4-17.064V21A16,16,0,0,0,23.183,5Z" fill="#3c372c" fill-rule="evenodd"/>
        <path id="Path_472" data-name="Path 472" d="M11.183,21a12,12,0,1,1,24,0v8a12,12,0,0,1-24,0Z" fill="#db985a"/>
        <path id="Path_473" data-name="Path 473" d="M7.183,24.5a4.5,4.5,0,0,1,4.5-4.5h23a4.5,4.5,0,0,1,0,9h-23A4.5,4.5,0,0,1,7.183,24.5Z" fill="#db985a"/>
        <path id="Path_474" data-name="Path 474" d="M18.183,20.5a1.5,1.5,0,0,1,3,0v4a1.5,1.5,0,0,1-3,0Z" fill="#bf8034"/>
        <path id="Path_475" data-name="Path 475" d="M24.183,20.5a1.5,1.5,0,0,1,3,0v4a1.5,1.5,0,0,1-3,0Z" fill="#bf8034"/>
        <path id="Path_476" data-name="Path 476" d="M17.183,29.045A1.043,1.043,0,0,1,18.225,28H27.14a1.042,1.042,0,0,1,1.042,1.042V29.5a5.5,5.5,0,0,1-11,0Z" fill="#fff"/>
        <path id="Path_477" data-name="Path 477" d="M7.183,21.006v0A16,16,0,0,1,31,7.036,17.85,17.85,0,0,1,13.183,22,18.434,18.434,0,0,1,7.183,21.006Z" fill="#3c372c"/>
    </g>
</svg>
